<svg width="170" height="78" viewBox="0 0 170 78" fill="none" xmlns="http://www.w3.org/2000/svg">
<rect y="12" width="170" height="66" rx="14" fill="#A069FF"/>
<rect width="170" height="66" rx="14" fill="#B991FF"/>
<rect x="6" y="6" width="158" height="54" rx="10" fill="#FADBFF"/>
<path d="M154 6C159.523 6 164 10.4772 164 16V28C164 22.4772 159.523 18 154 18H16C10.4772 18 6 22.4772 6 28V16C6 10.4772 10.4772 6 16 6H154Z" fill="#E3B3EB"/>
<path d="M79.7958 36.2087C79.7958 44.8051 79.2556 57.9211 50.2612 57.9211C20.4564 58.0097 20.9066 44.8051 20.9066 36.2087C20.9066 27.6124 34.0532 20.6999 50.3512 20.6999C66.6493 20.6999 79.7958 27.701 79.7958 36.2087Z" fill="#FAB62F"/>
<path d="M59.7159 43.2982C55.6639 45.2479 50.5313 45.6024 46.0291 44.5389C42.7875 44.0958 39.5459 43.2982 37.1147 41.2599C34.5934 39.133 34.1432 36.1198 36.2142 33.4611C39.726 29.03 46.1191 26.8145 51.7019 26.46C56.024 26.1055 62.6874 26.3714 65.3887 30.448C68.4502 35.0563 64.038 41.2599 59.7159 43.2982Z" fill="#DF7F35"/>
<path d="M41.707 36.563C41.707 36.563 43.8681 39.4876 49.9911 39.6648C56.2042 39.842 58.7255 36.7403 58.7255 36.7403C57.0146 36.0313 54.4033 35.2337 51.0717 35.1451C47.0197 34.9678 43.688 35.8541 41.707 36.563Z" fill="#FADBFF"/>
<path d="M55.844 20.3453C45.0386 19.459 28.7405 19.5477 22.1673 29.8278C20.8166 31.9547 19.9161 34.5248 20.0062 37.0948C20.0962 38.7786 19.7361 42.3235 20.9967 43.5642C22.7075 45.1594 24.5985 42.8553 26.3994 44.5391C27.75 45.8684 27.4799 48.2612 29.1907 49.3247C31.5319 50.7426 34.2333 47.9953 36.0341 46.7546C38.3753 45.1594 41.0766 43.9187 44.0481 44.3618C47.1096 44.8049 49.6309 47.1977 52.7825 47.375C56.0241 47.5522 57.2847 44.6277 60.1661 44.2732C62.8675 43.9187 63.858 46.7546 66.019 47.8181C69.3507 49.3247 71.5117 47.0205 73.4927 44.8049C75.2036 42.8553 77.9049 43.1211 79.1655 40.7283C80.156 38.6014 84.5682 22.8267 55.844 20.3453ZM61.6969 34.9679C56.4743 38.3355 49.901 40.4625 43.9581 37.8038C42.3373 37.0948 40.1762 35.8541 39.2758 34.2589C37.9251 31.7775 39.5459 31.1571 41.707 32.0434C45.3988 33.5499 44.5884 32.5751 47.92 31.1571C50.8015 29.9164 50.0811 32.6637 52.4223 32.841C54.2232 32.9296 55.6639 30.5368 57.4648 30.1823C60.6163 29.4733 62.9575 32.0434 61.6969 34.9679Z" fill="#FF5566"/>
<path d="M26.7596 38.9558C27.4559 38.9558 28.0203 38.4003 28.0203 37.7151C28.0203 37.0299 27.4559 36.4744 26.7596 36.4744C26.0634 36.4744 25.499 37.0299 25.499 37.7151C25.499 38.4003 26.0634 38.9558 26.7596 38.9558Z" fill="#FFC533"/>
<path d="M33.2428 35.7647C33.939 35.7647 34.5034 35.2092 34.5034 34.524C34.5034 33.8387 33.939 33.2832 33.2428 33.2832C32.5466 33.2832 31.9822 33.8387 31.9822 34.524C31.9822 35.2092 32.5466 35.7647 33.2428 35.7647Z" fill="#FF80C8"/>
<path d="M30.0912 34.347L25.6791 33.0176C25.2288 32.8404 24.9587 32.3973 25.0487 31.8656C25.2288 31.4224 25.6791 31.1566 26.2193 31.2452L30.6315 32.5745C31.0817 32.7518 31.3519 33.1949 31.2618 33.7266C31.0817 34.1697 30.6315 34.4356 30.0912 34.347Z" fill="#00CAF2"/>
<path d="M31.8922 38.1575L36.3944 37.1827C36.8447 37.0941 37.3849 37.3599 37.475 37.8917C37.565 38.3348 37.2949 38.8665 36.7546 38.9551L32.2524 39.93C31.8022 40.0186 31.2619 39.7527 31.1718 39.221C31.0818 38.7779 31.3519 38.2462 31.8922 38.1575Z" fill="#00E339"/>
<path d="M58.7255 42.4117C59.4217 42.4117 59.9861 41.8562 59.9861 41.171C59.9861 40.4858 59.4217 39.9303 58.7255 39.9303C58.0292 39.9303 57.4648 40.4858 57.4648 41.171C57.4648 41.8562 58.0292 42.4117 58.7255 42.4117Z" fill="#FFC533"/>
<path d="M65.2987 39.1334C65.9949 39.1334 66.5593 38.5779 66.5593 37.8926C66.5593 37.2074 65.9949 36.6519 65.2987 36.6519C64.6025 36.6519 64.0381 37.2074 64.0381 37.8926C64.0381 38.5779 64.6025 39.1334 65.2987 39.1334Z" fill="#FF80C8"/>
<path d="M75.5639 39.6649L71.1517 38.3355C70.7015 38.1583 70.4314 37.7152 70.5214 37.1834C70.7015 36.7403 71.1517 36.4745 71.692 36.5631L76.1042 37.8924C76.5544 38.0697 76.8245 38.5128 76.7345 39.0445C76.5544 39.4876 76.0141 39.7535 75.5639 39.6649Z" fill="#00CAF2"/>
<path d="M63.9481 41.5262L68.4503 40.5514C68.9006 40.4627 69.4408 40.7286 69.5309 41.2603C69.6209 41.7034 69.3508 42.2352 68.8105 42.3238L64.3083 43.2986C63.8581 43.3873 63.3178 43.1214 63.2278 42.5897C63.1377 42.1466 63.4078 41.7034 63.9481 41.5262Z" fill="#00E339"/>
<path d="M45.9391 42.0584C46.6353 42.0584 47.1997 41.5029 47.1997 40.8177C47.1997 40.1324 46.6353 39.577 45.9391 39.577C45.2429 39.577 44.6785 40.1324 44.6785 40.8177C44.6785 41.5029 45.2429 42.0584 45.9391 42.0584Z" fill="#FFC533"/>
<path d="M34.3234 45.0713C35.0196 45.0713 35.584 44.5158 35.584 43.8306C35.584 43.1454 35.0196 42.5899 34.3234 42.5899C33.6271 42.5899 33.0627 43.1454 33.0627 43.8306C33.0627 44.5158 33.6271 45.0713 34.3234 45.0713Z" fill="#FF80C8"/>
<path d="M49.8112 41.7922L54.3134 42.3239C54.8537 42.4126 55.2139 42.8557 55.1238 43.2988C55.0338 43.8305 54.5835 44.185 54.1333 44.0964L49.6311 43.5647C49.0908 43.476 48.7306 43.0329 48.8207 42.5898C48.8207 42.0581 49.2709 41.7036 49.8112 41.7922Z" fill="#00CAF2"/>
<path d="M41.2568 40.1085L37.0247 41.7924C36.5745 41.9696 36.0342 41.7923 35.8542 41.2606C35.6741 40.8175 35.8542 40.2858 36.3944 40.1085L40.6265 38.4247C41.0767 38.2475 41.617 38.4247 41.7971 38.9564C41.8871 39.3996 41.7071 39.9313 41.2568 40.1085Z" fill="#926DE3"/>
<path d="M58.005 26.3712C58.7012 26.3712 59.2656 25.8157 59.2656 25.1305C59.2656 24.4453 58.7012 23.8898 58.005 23.8898C57.3088 23.8898 56.7444 24.4453 56.7444 25.1305C56.7444 25.8157 57.3088 26.3712 58.005 26.3712Z" fill="#FFC533"/>
<path d="M46.3893 29.385C47.0855 29.385 47.6499 28.8296 47.6499 28.1443C47.6499 27.4591 47.0855 26.9036 46.3893 26.9036C45.6931 26.9036 45.1287 27.4591 45.1287 28.1443C45.1287 28.8296 45.6931 29.385 46.3893 29.385Z" fill="#FF80C8"/>
<path d="M61.8771 26.1059L66.3793 26.6377C66.9196 26.7263 67.2798 27.1694 67.1897 27.6125C67.0997 28.1443 66.6495 28.4987 66.1992 28.4101L61.697 27.8784C61.1567 27.7898 60.7965 27.3467 60.8866 26.9035C60.8866 26.3718 61.3368 26.0173 61.8771 26.1059Z" fill="#00CAF2"/>
<path d="M53.2327 24.4218L49.0006 26.1943C48.5503 26.3715 48.0101 26.1943 47.83 25.6625C47.6499 25.2194 47.83 24.6877 48.3703 24.5104L52.6023 22.8266C53.0526 22.6494 53.5928 22.8266 53.7729 23.3584C53.953 23.7128 53.7729 24.2446 53.2327 24.4218Z" fill="#926DE3"/>
<path d="M38.1952 28.1442C38.8914 28.1442 39.4558 27.5887 39.4558 26.9035C39.4558 26.2183 38.8914 25.6628 38.1952 25.6628C37.499 25.6628 36.9346 26.2183 36.9346 26.9035C36.9346 27.5887 37.499 28.1442 38.1952 28.1442Z" fill="#FFC533"/>
<path d="M35.4037 31.4235C36.0999 31.4235 36.6643 30.868 36.6643 30.1828C36.6643 29.4976 36.0999 28.9421 35.4037 28.9421C34.7075 28.9421 34.1431 29.4976 34.1431 30.1828C34.1431 30.868 34.7075 31.4235 35.4037 31.4235Z" fill="#80AAFF"/>
<path d="M39.3657 23.0927L43.8679 23.8903C44.4082 23.9789 44.6783 24.422 44.5883 24.9538C44.4982 25.4855 44.048 25.7514 43.5077 25.6627L39.0055 24.8651C38.4652 24.7765 38.1951 24.3334 38.2851 23.8017C38.3752 23.2699 38.8254 23.0041 39.3657 23.0927Z" fill="#00CAF2"/>
<path d="M33.0626 27.081L28.7404 28.5875C28.2002 28.6761 27.6599 28.4989 27.5698 27.9672C27.3897 27.5241 27.6599 26.9923 28.1101 26.8151L32.4322 25.3971C32.8825 25.2199 33.4227 25.4858 33.6028 25.9289C33.7829 26.4606 33.5128 26.9037 33.0626 27.081Z" fill="#00E339"/>
<path d="M65.2086 31.4223C65.9048 31.4223 66.4692 30.8668 66.4692 30.1816C66.4692 29.4964 65.9048 28.9409 65.2086 28.9409C64.5124 28.9409 63.948 29.4964 63.948 30.1816C63.948 30.8668 64.5124 31.4223 65.2086 31.4223Z" fill="#FFC533"/>
<path d="M68.0001 34.6125C68.6964 34.6125 69.2608 34.057 69.2608 33.3718C69.2608 32.6866 68.6964 32.1311 68.0001 32.1311C67.3039 32.1311 66.7395 32.6866 66.7395 33.3718C66.7395 34.057 67.3039 34.6125 68.0001 34.6125Z" fill="#80AAFF"/>
<path d="M56.0241 26.6368L51.5218 27.4344C51.0716 27.5231 50.7114 27.9662 50.8015 28.4979C50.8915 29.0296 51.3418 29.2955 51.882 29.2069L56.3843 28.4093C56.9245 28.3207 57.1947 27.8775 57.1046 27.3458C57.0146 26.9027 56.5644 26.5482 56.0241 26.6368Z" fill="#00CAF2"/>
<path d="M70.4314 30.3591L74.7535 31.777C75.2038 31.9543 75.744 31.6884 75.9241 31.2453C76.1042 30.8022 75.8341 30.2704 75.3839 30.0932L71.0617 28.6752C70.6115 28.498 70.0712 28.7639 69.8911 29.207C69.711 29.6501 69.9812 30.1818 70.4314 30.3591Z" fill="#00E339"/>
<path d="M149.796 36.2087C149.796 44.8051 149.256 57.9211 120.261 57.9211C90.4564 58.0097 90.9066 44.8051 90.9066 36.2087C90.9066 27.6124 104.053 20.6999 120.351 20.6999C136.649 20.6999 149.796 27.701 149.796 36.2087Z" fill="#FAB62F"/>
<path d="M129.716 43.2982C125.664 45.2479 120.531 45.6024 116.029 44.5389C112.787 44.0958 109.546 43.2982 107.115 41.2599C104.593 39.133 104.143 36.1198 106.214 33.4611C109.726 29.03 116.119 26.8145 121.702 26.46C126.024 26.1055 132.687 26.3714 135.389 30.448C138.45 35.0563 134.038 41.2599 129.716 43.2982Z" fill="#DF7F35"/>
<path d="M111.707 36.563C111.707 36.563 113.868 39.4876 119.991 39.6648C126.204 39.842 128.725 36.7403 128.725 36.7403C127.015 36.0313 124.403 35.2337 121.072 35.1451C117.02 34.9678 113.688 35.8541 111.707 36.563Z" fill="#FADBFF"/>
<path d="M125.844 20.3453C115.039 19.459 98.7405 19.5477 92.1673 29.8278C90.8166 31.9547 89.9161 34.5248 90.0062 37.0948C90.0962 38.7786 89.7361 42.3235 90.9967 43.5642C92.7075 45.1594 94.5985 42.8553 96.3994 44.5391C97.75 45.8684 97.4799 48.2612 99.1907 49.3247C101.532 50.7426 104.233 47.9953 106.034 46.7546C108.375 45.1594 111.077 43.9187 114.048 44.3618C117.11 44.8049 119.631 47.1977 122.782 47.375C126.024 47.5522 127.285 44.6277 130.166 44.2732C132.867 43.9187 133.858 46.7546 136.019 47.8181C139.351 49.3247 141.512 47.0205 143.493 44.8049C145.204 42.8553 147.905 43.1211 149.166 40.7283C150.156 38.6014 154.568 22.8267 125.844 20.3453ZM131.697 34.9679C126.474 38.3355 119.901 40.4625 113.958 37.8038C112.337 37.0948 110.176 35.8541 109.276 34.2589C107.925 31.7775 109.546 31.1571 111.707 32.0434C115.399 33.5499 114.588 32.5751 117.92 31.1571C120.801 29.9164 120.081 32.6637 122.422 32.841C124.223 32.9296 125.664 30.5368 127.465 30.1823C130.616 29.4733 132.958 32.0434 131.697 34.9679Z" fill="#FF5566"/>
<path d="M96.7596 38.9558C97.4559 38.9558 98.0203 38.4003 98.0203 37.7151C98.0203 37.0299 97.4559 36.4744 96.7596 36.4744C96.0634 36.4744 95.499 37.0299 95.499 37.7151C95.499 38.4003 96.0634 38.9558 96.7596 38.9558Z" fill="#FFC533"/>
<path d="M103.243 35.7647C103.939 35.7647 104.503 35.2092 104.503 34.524C104.503 33.8387 103.939 33.2832 103.243 33.2832C102.547 33.2832 101.982 33.8387 101.982 34.524C101.982 35.2092 102.547 35.7647 103.243 35.7647Z" fill="#FF80C8"/>
<path d="M100.091 34.347L95.6791 33.0176C95.2288 32.8404 94.9587 32.3973 95.0487 31.8656C95.2288 31.4224 95.6791 31.1566 96.2193 31.2452L100.632 32.5745C101.082 32.7518 101.352 33.1949 101.262 33.7266C101.082 34.1697 100.632 34.4356 100.091 34.347Z" fill="#00CAF2"/>
<path d="M101.892 38.1575L106.394 37.1827C106.845 37.0941 107.385 37.3599 107.475 37.8917C107.565 38.3348 107.295 38.8665 106.755 38.9551L102.252 39.93C101.802 40.0186 101.262 39.7527 101.172 39.221C101.082 38.7779 101.352 38.2462 101.892 38.1575Z" fill="#00E339"/>
<path d="M128.725 42.4117C129.422 42.4117 129.986 41.8562 129.986 41.171C129.986 40.4858 129.422 39.9303 128.725 39.9303C128.029 39.9303 127.465 40.4858 127.465 41.171C127.465 41.8562 128.029 42.4117 128.725 42.4117Z" fill="#FFC533"/>
<path d="M135.299 39.1334C135.995 39.1334 136.559 38.5779 136.559 37.8926C136.559 37.2074 135.995 36.6519 135.299 36.6519C134.602 36.6519 134.038 37.2074 134.038 37.8926C134.038 38.5779 134.602 39.1334 135.299 39.1334Z" fill="#FF80C8"/>
<path d="M145.564 39.6649L141.152 38.3355C140.701 38.1583 140.431 37.7152 140.521 37.1834C140.701 36.7403 141.152 36.4745 141.692 36.5631L146.104 37.8924C146.554 38.0697 146.825 38.5128 146.734 39.0445C146.554 39.4876 146.014 39.7535 145.564 39.6649Z" fill="#00CAF2"/>
<path d="M133.948 41.5262L138.45 40.5514C138.901 40.4627 139.441 40.7286 139.531 41.2603C139.621 41.7034 139.351 42.2352 138.811 42.3238L134.308 43.2986C133.858 43.3873 133.318 43.1214 133.228 42.5897C133.138 42.1466 133.408 41.7034 133.948 41.5262Z" fill="#00E339"/>
<path d="M115.939 42.0584C116.635 42.0584 117.2 41.5029 117.2 40.8177C117.2 40.1324 116.635 39.577 115.939 39.577C115.243 39.577 114.678 40.1324 114.678 40.8177C114.678 41.5029 115.243 42.0584 115.939 42.0584Z" fill="#FFC533"/>
<path d="M104.323 45.0713C105.02 45.0713 105.584 44.5158 105.584 43.8306C105.584 43.1454 105.02 42.5899 104.323 42.5899C103.627 42.5899 103.063 43.1454 103.063 43.8306C103.063 44.5158 103.627 45.0713 104.323 45.0713Z" fill="#FF80C8"/>
<path d="M119.811 41.7922L124.313 42.3239C124.854 42.4126 125.214 42.8557 125.124 43.2988C125.034 43.8305 124.584 44.185 124.133 44.0964L119.631 43.5647C119.091 43.476 118.731 43.0329 118.821 42.5898C118.821 42.0581 119.271 41.7036 119.811 41.7922Z" fill="#00CAF2"/>
<path d="M111.257 40.1085L107.025 41.7924C106.575 41.9696 106.034 41.7923 105.854 41.2606C105.674 40.8175 105.854 40.2858 106.394 40.1085L110.627 38.4247C111.077 38.2475 111.617 38.4247 111.797 38.9564C111.887 39.3996 111.707 39.9313 111.257 40.1085Z" fill="#926DE3"/>
<path d="M128.005 26.3712C128.701 26.3712 129.266 25.8157 129.266 25.1305C129.266 24.4453 128.701 23.8898 128.005 23.8898C127.309 23.8898 126.744 24.4453 126.744 25.1305C126.744 25.8157 127.309 26.3712 128.005 26.3712Z" fill="#FFC533"/>
<path d="M116.389 29.385C117.086 29.385 117.65 28.8296 117.65 28.1443C117.65 27.4591 117.086 26.9036 116.389 26.9036C115.693 26.9036 115.129 27.4591 115.129 28.1443C115.129 28.8296 115.693 29.385 116.389 29.385Z" fill="#FF80C8"/>
<path d="M131.877 26.1059L136.379 26.6377C136.92 26.7263 137.28 27.1694 137.19 27.6125C137.1 28.1443 136.649 28.4987 136.199 28.4101L131.697 27.8784C131.157 27.7898 130.797 27.3467 130.887 26.9035C130.887 26.3718 131.337 26.0173 131.877 26.1059Z" fill="#00CAF2"/>
<path d="M123.233 24.4218L119.001 26.1943C118.55 26.3715 118.01 26.1943 117.83 25.6625C117.65 25.2194 117.83 24.6877 118.37 24.5104L122.602 22.8266C123.053 22.6494 123.593 22.8266 123.773 23.3584C123.953 23.7128 123.773 24.2446 123.233 24.4218Z" fill="#926DE3"/>
<path d="M108.195 28.1442C108.891 28.1442 109.456 27.5887 109.456 26.9035C109.456 26.2183 108.891 25.6628 108.195 25.6628C107.499 25.6628 106.935 26.2183 106.935 26.9035C106.935 27.5887 107.499 28.1442 108.195 28.1442Z" fill="#FFC533"/>
<path d="M105.404 31.4235C106.1 31.4235 106.664 30.868 106.664 30.1828C106.664 29.4976 106.1 28.9421 105.404 28.9421C104.707 28.9421 104.143 29.4976 104.143 30.1828C104.143 30.868 104.707 31.4235 105.404 31.4235Z" fill="#80AAFF"/>
<path d="M109.366 23.0927L113.868 23.8903C114.408 23.9789 114.678 24.422 114.588 24.9538C114.498 25.4855 114.048 25.7514 113.508 25.6627L109.005 24.8651C108.465 24.7765 108.195 24.3334 108.285 23.8017C108.375 23.2699 108.825 23.0041 109.366 23.0927Z" fill="#00CAF2"/>
<path d="M103.063 27.081L98.7404 28.5875C98.2002 28.6761 97.6599 28.4989 97.5698 27.9672C97.3897 27.5241 97.6599 26.9923 98.1101 26.8151L102.432 25.3971C102.882 25.2199 103.423 25.4858 103.603 25.9289C103.783 26.4606 103.513 26.9037 103.063 27.081Z" fill="#00E339"/>
<path d="M135.209 31.4223C135.905 31.4223 136.469 30.8668 136.469 30.1816C136.469 29.4964 135.905 28.9409 135.209 28.9409C134.512 28.9409 133.948 29.4964 133.948 30.1816C133.948 30.8668 134.512 31.4223 135.209 31.4223Z" fill="#FFC533"/>
<path d="M138 34.6125C138.696 34.6125 139.261 34.057 139.261 33.3718C139.261 32.6866 138.696 32.1311 138 32.1311C137.304 32.1311 136.74 32.6866 136.74 33.3718C136.74 34.057 137.304 34.6125 138 34.6125Z" fill="#80AAFF"/>
<path d="M126.024 26.6368L121.522 27.4344C121.072 27.5231 120.711 27.9662 120.801 28.4979C120.892 29.0296 121.342 29.2955 121.882 29.2069L126.384 28.4093C126.925 28.3207 127.195 27.8775 127.105 27.3458C127.015 26.9027 126.564 26.5482 126.024 26.6368Z" fill="#00CAF2"/>
<path d="M140.431 30.3591L144.754 31.777C145.204 31.9543 145.744 31.6884 145.924 31.2453C146.104 30.8022 145.834 30.2704 145.384 30.0932L141.062 28.6752C140.611 28.498 140.071 28.7639 139.891 29.207C139.711 29.6501 139.981 30.1818 140.431 30.3591Z" fill="#00E339"/>
<rect opacity="0.25" width="170" height="66" rx="14" fill="white"/>
<mask id="mask0_4038_51076" style="mask-type:alpha" maskUnits="userSpaceOnUse" x="0" y="0" width="170" height="66">
<rect opacity="0.54" width="170" height="66" rx="14" fill="#C1F0FF"/>
</mask>
<g mask="url(#mask0_4038_51076)">
<rect opacity="0.3" x="104.5" y="-92" width="26" height="271" transform="rotate(30 104.5 -92)" fill="white"/>
<rect opacity="0.3" x="133.079" y="-75.5" width="14" height="271" transform="rotate(30 133.079 -75.5)" fill="white"/>
</g>
</svg>
